# xmcd
#
# Track frame offsets: 
#        150
#        16895
#        34062
#        50755
#
# Disc length: 904 seconds
#
# Revision: 5
# Processed by: cddbd v1.5.2PL0 Copyright (c) Steve Scherf et al.
# Submitted via: ExactAudioCopyFreeDBPlugin 1.0
#
DISCID=2b038604
DTITLE=横山智佐／高橋美紀 - LIGHTNING HEART
DYEAR=1996
DGENRE=Anime
TTITLE0=横山智佐 - LIGHTNING HEART
TTITLE1=高橋美紀 - おでかけしましょうよ!
TTITLE2=Unknown Artist - LIGHTNING HEART(off vocal version)
TTITLE3=Unknown Artist - おでかけしましょうよ!(off vocal version)
EXTD=YEAR: 1996
EXTT0=
EXTT1=
EXTT2=
EXTT3=
PLAYORDER=
